<svg width="1224" height="541" viewBox="0 0 1224 541" fill="none" xmlns="http://www.w3.org/2000/svg">
<path d="M0 133.892C0 67.2777 0 33.9705 20.8484 14.9363C41.6968 -4.09787 75.1558 -1.04753 142.074 5.05317C272.259 16.9217 466.319 32 612 32C757.681 32 951.741 16.9217 1081.93 5.05317C1148.84 -1.04753 1182.3 -4.09787 1203.15 14.9363C1224 33.9705 1224 67.2777 1224 133.892V413C1224 473.34 1224 503.51 1205.25 522.255C1186.51 541 1156.34 541 1096 541H128C67.6602 541 37.4903 541 18.7452 522.255C0 503.51 0 473.34 0 413V133.892Z" fill="#E9F5FF"/>
</svg>
