<svg width="514" height="444" viewBox="0 0 514 444" fill="none" xmlns="http://www.w3.org/2000/svg">
<path d="M0 141.57C0 69.2757 0 33.1284 21.6617 14.0195C43.3233 -5.08931 81.2391 -0.322508 157.071 9.21111C191.219 13.5043 226.053 16.5622 256 16.5622C285.578 16.5622 320.529 13.4811 355.129 9.13278C433.676 -0.738714 472.949 -5.67446 494.808 14.4712C516.667 34.6168 515.034 72.1309 511.769 147.159L509 210.802L510.332 314.353C511.118 375.402 511.51 405.926 492.716 424.963C473.922 444 443.396 444 382.343 444H128C67.6602 444 37.4903 444 18.7452 425.255C0 406.51 0 376.34 0 316V141.57Z" fill="#E9F5FF"/>
</svg>
