<svg width="180" height="156" viewBox="0 0 180 156" fill="none" xmlns="http://www.w3.org/2000/svg">
<g clip-path="url(#clip0_32_1164)">
<path d="M-96.0446 187.22C-103.351 183.567 -111.198 180.591 -119.581 179.844C-126.18 179.262 -131.167 181.84 -136.113 185.546C-138.879 187.624 -141.627 189.681 -144.394 191.759C-145.099 192.299 -148.006 194.643 -149.006 193.507C-149.592 192.843 -148.659 191.298 -148.124 190.566C-144.774 185.925 -141.269 181.709 -137.607 177.936C-136.502 176.794 -135.142 175.642 -133.525 174.5C-127.414 170.183 -121.162 170.9 -114.61 173.524C-107.213 176.474 -99.774 179.42 -92.3601 182.33C-84.3468 185.461 -76.4516 188.298 -67.6279 188.419C-56.4396 188.562 -45.3973 183.248 -37.3844 176.354C-33.2121 172.773 -30.0001 169.359 -25.8248 165.048C-22.9273 162.052 -20.0422 160.46 -15.8278 159.333C-8.28567 157.332 -0.274019 154.587 6.51192 150.405C10.1526 148.151 13.1534 145.317 15.5099 141.864C18.0845 138.079 19.9342 134.472 21.0822 131.059C23.0876 125.053 21.2669 119.842 17.7796 114.761C14.2144 109.555 10.7683 105.219 8.58612 100.011C8.2379 99.1857 7.17455 95.599 9.21965 95.6185C10.2201 95.6211 11.1364 96.7662 11.621 97.4799C13.4478 100.097 15.2347 102.738 17.2022 105.282C19.4941 108.25 21.7649 111.221 24.0379 114.211C26.6353 117.625 29.065 121.25 30.0492 125.268C30.7519 128.108 29.93 129.314 28.1332 131.878C26.6655 133.964 25.509 136.168 24.624 138.514C23.9713 140.278 23.2489 143.124 22.5164 144.935C19.9547 151.292 14.9185 156.084 8.39588 159.391C4.69147 161.268 0.609625 162.437 -3.76822 163.814C-10.3434 165.898 -17.8476 169.181 -23.0105 173.603C-28.7191 178.471 -34.1168 183.265 -41.0216 186.769C-46.9793 189.801 -53.5292 191.921 -60.6901 193.15C-70.0237 194.738 -78.2409 195.279 -86.6292 191.652C-89.5404 190.367 -92.6851 188.896 -96.0446 187.22Z" fill="white" fill-opacity="0.1"/>
<path d="M248.471 -11.2742C247.217 -11.6324 245.91 -11.7157 244.525 -11.5407C241.001 -11.0864 237.486 -10.5563 233.976 -9.96934C226.979 -8.79773 220.259 -5.54487 218.194 1.06325C216.672 5.88186 217.638 10.1132 220.22 14.3355C222.405 17.8727 223.897 20.9119 223.275 25.0338C222.922 27.3781 222.268 29.6985 221.391 31.9288C220.567 34.0572 219.593 36.1832 218.434 38.1764C216.083 42.2434 212.964 45.9167 210.114 49.7134C208.208 52.2516 206.96 55.3494 206.297 58.343C205.436 62.2231 205.565 66.395 205.671 70.5503C205.774 74.6866 204.858 78.6497 202.948 82.475C200.617 87.0967 197.754 91.9126 195.132 96.0293C192.438 100.269 188.606 103.466 183.639 105.657C180.171 107.181 176.156 109.13 171.553 111.531C167.372 113.71 163.032 115.62 158.124 115.116C152.097 114.508 146.346 111.621 141.25 108.7C135.837 105.603 130.564 102.24 124.511 100.271C118.326 98.2598 112.674 100.221 107.37 103.391C104.976 104.813 102.559 106.218 100.138 107.585C97.6962 108.955 95.231 110.307 92.7405 111.625C90.3696 112.871 87.9504 114.065 85.5838 115.349C83.297 116.586 81.063 117.913 79.0248 119.467C77.3791 120.728 75.8555 122.128 74.5867 123.712C73.4289 125.148 72.5005 126.731 71.814 128.383C71.0437 130.236 70.6014 132.168 70.3757 134.133C70.3033 134.813 70.254 135.51 70.2258 136.205C69.9169 144.804 71.77 152.95 75.7786 160.583C77.1915 163.305 79.2742 166.873 81.0006 169.732C84.3983 175.341 87.296 181.045 89.6958 186.862C91.857 192.073 93.9936 197.632 96.4953 202.843C98.9885 207.978 103.798 213.274 103.651 219.148C103.599 220.959 103.236 223.784 105.474 224.762C108.791 226.251 111.97 221.592 112.617 219.406C113.311 217.062 112.65 214.967 111.278 212.989C105.496 204.537 100.551 195.953 96.8919 186.513C93.6807 178.214 89.6282 170.758 84.9386 163.124C78.7672 153.103 72.7206 139.842 80.8085 128.888C82.2848 126.878 83.8262 124.88 85.6707 123.117C87.4753 121.378 89.5683 119.932 91.733 118.556C93.7758 117.231 95.9154 116.011 98.0847 114.864C100.275 113.715 102.518 112.656 104.788 111.651C107.161 110.616 109.564 109.654 111.974 108.749C112.301 108.636 112.627 108.503 112.954 108.389C120.43 105.608 125.999 108.573 132.075 112.075C136.695 114.743 140.606 116.78 145.645 118.633C154.794 122.02 164.79 122.162 174.516 120.088C177.384 119.477 180.247 118.637 182.717 117.322C186.469 115.306 189.789 112.09 192.451 109.274C196.582 104.949 200.482 100.459 204.15 95.8016C206.721 92.5548 208.719 89.507 210.167 86.6748C212.31 82.4584 212.606 78.6611 212.394 74.1336C212.134 68.4209 214.02 62.678 215.528 56.9776C216.033 55.0387 216.489 53.6048 216.87 52.6401C217.916 50.0258 219.438 47.6653 221.385 45.4874C222.935 43.7574 224.603 42.1294 226.017 40.3187C228.991 36.4889 230.959 31.8506 231.438 27.2261C231.873 23.1444 231.069 19.0292 229.085 15.3925C226.513 10.6891 222.59 5.13903 227.384 0.0865612C231.628 -4.36634 238.79 -5.01878 244.735 -5.70709C246.374 -5.89157 248.435 -6.29639 249.659 -7.33669C251.201 -8.75854 250.405 -10.7238 248.471 -11.2742Z" fill="white" fill-opacity="0.1"/>
<path d="M145.572 14.7676C140.782 12.6758 135.694 11.5201 130.212 12.7324C128.532 13.1136 126.872 13.4925 125.212 13.8713C120.836 14.8824 117.864 11.5489 122.494 9.01134C127.125 6.47381 132.733 5.43934 137.859 6.93632C144.942 8.98134 151.924 13.5342 159.532 13.446C165.293 13.393 169.888 9.78399 173.55 5.64621C175.023 3.98257 177.431 1.17662 180.758 -2.73131C185.662 -8.50672 192.15 -13.6346 198.171 -18.7484C203.729 -23.4451 207.861 -28.3271 210.601 -34.7999C211.326 -36.4946 212.05 -38.1892 212.777 -39.8649C215.733 -46.6885 221.371 -51.9897 228.604 -55.2234C229.314 -55.5338 230.898 -56.2113 233.334 -57.2537C236.644 -58.6632 239.075 -61.4526 242.411 -62.6346C245.665 -63.7881 248.459 -63.1617 250.477 -60.5466C253.713 -56.3787 258.007 -53.9622 262.615 -51.2162C264.348 -50.1823 267.395 -48.2591 266.966 -46.0216C266.614 -44.2344 264.623 -44.1448 262.952 -44.6288C260.136 -45.4449 257.781 -47.2731 254.686 -49.2484C251.315 -51.4039 247.514 -52.8389 243.304 -52.9987C234.091 -53.3637 226.598 -49.6014 221.558 -42.5816C218.966 -38.9484 217.452 -35.379 215.773 -31.5797C213.177 -25.7184 209.455 -20.7865 204.604 -16.8031C201.351 -14.1325 198.1 -11.4429 194.851 -8.73437C189.713 -4.46895 185.248 0.296776 181.457 5.56283C178.935 9.05378 176.106 13.7891 174.267 16.5501C169.533 23.6506 163.462 23.9691 156.143 20.0112C152.377 17.9385 148.862 16.2025 145.572 14.7676Z" fill="white" fill-opacity="0.1"/>
<path d="M196.777 -39.4853C196.142 -39.4522 195.579 -39.3505 195.062 -39.2155C191.266 -38.1545 188.688 -37.4227 185.307 -37.0229C179.533 -36.3346 174.209 -37.1181 170.671 -31.8804C168.664 -28.9085 167.188 -26.8988 164.894 -24.7778C157.449 -17.9482 148.499 -13.3306 138.438 -10.4507C127.531 -7.34108 115.685 -4.81717 104.336 -1.8499C96.1718 0.298018 87.0565 4.20452 89.2923 13.67C90.3064 17.9536 93.3015 22.8207 96.0332 26.1043C100.465 31.4435 107.476 32.2868 114.417 31.7551C125.007 30.9281 135.794 28.8307 146.075 32.8202C150.592 34.5778 154.873 36.8805 158.641 39.7211C160.897 41.426 163.13 43.3063 164.486 45.7078C165.845 48.1472 165.793 50.7072 165.413 53.3809C164.638 58.5956 162.394 63.9948 158.208 67.8266C157.803 68.1987 157.374 68.5542 156.944 68.8906C155.531 69.9522 154.142 71.0304 152.731 72.111C150.714 73.6631 148.695 76.3292 151.712 78.1789C154.592 79.9479 160.009 77.5907 162.309 75.7187C167.556 71.4794 169.396 64.5702 170.836 58.2629C172.129 52.5483 173.837 46.1723 170.453 40.869C167.426 36.1014 161.548 32.4614 156.356 29.8195C152.746 27.9981 148.937 26.4872 144.998 25.3366C135.426 22.5348 125.854 24.6492 116.171 25.9695C107.618 27.1241 96.6331 25.3839 96.0428 15.7908C95.5847 8.50651 102.983 5.98388 109.245 4.14601C121.793 0.486885 134.228 -3.04427 146.406 -7.71802C157.625 -12.0341 167.404 -17.6092 177.229 -24.2841C178.356 -25.0447 180.905 -26.7911 184.877 -29.5042C188.196 -31.7789 191.81 -33.3188 195.758 -34.1664C196.838 -34.4032 197.764 -34.8723 198.555 -35.595C200.209 -37.1638 199.461 -39.6529 196.777 -39.4853Z" fill="white" fill-opacity="0.1"/>
<path d="M156.409 4.04188C154.942 3.66936 154.375 2.60018 154.925 1.25156C155.794 -0.862602 157.768 -2.60198 159.721 -3.97395C163.922 -6.92403 168.274 -9.66073 172.826 -12.1319C173.788 -12.6626 175.979 -13.4277 175.99 -11.8159C176.005 -10.5501 174.887 -9.32961 174.064 -8.50729C171.083 -5.50239 168.055 -2.53069 165.004 0.424423C163.178 2.1662 158.996 4.71097 156.409 4.04188Z" fill="white" fill-opacity="0.1"/>
<path d="M222.857 -238.837C221.604 -239.196 220.297 -239.279 218.912 -239.104C215.388 -238.65 211.872 -238.12 208.363 -237.533C201.366 -236.361 194.646 -233.108 192.581 -226.5C191.059 -221.681 192.024 -217.45 194.606 -213.228C196.792 -209.691 198.283 -206.651 197.662 -202.529C197.309 -200.185 196.655 -197.865 195.778 -195.634C194.953 -193.506 193.98 -191.38 192.821 -189.387C190.47 -185.32 187.35 -181.647 184.501 -177.85C182.594 -175.312 181.347 -172.214 180.684 -169.22C179.822 -165.34 179.951 -161.168 180.057 -157.013C180.161 -152.877 179.245 -148.914 177.335 -145.088C175.004 -140.467 172.141 -135.651 169.518 -131.534C166.825 -127.294 162.992 -124.097 158.025 -121.906C154.558 -120.383 150.542 -118.433 145.939 -116.033C141.758 -113.853 137.419 -111.944 132.511 -112.447C126.484 -113.056 120.732 -115.942 115.637 -118.863C110.223 -121.96 104.95 -125.323 98.8978 -127.292C92.7129 -129.303 87.0603 -127.342 81.7565 -124.172C79.3628 -122.75 76.9461 -121.345 74.525 -119.978C72.0829 -118.609 69.6177 -117.256 67.1272 -115.938C64.7563 -114.692 62.3371 -113.498 59.9705 -112.214C57.6838 -110.977 55.4497 -109.65 53.4115 -108.096C51.7658 -106.835 50.2423 -105.435 48.9734 -103.852C47.8156 -102.415 46.8872 -100.832 46.2007 -99.1803C45.4304 -97.3269 44.9881 -95.3951 44.7624 -93.4301C44.69 -92.7498 44.6407 -92.053 44.6125 -91.3584C44.3036 -82.7588 46.1567 -74.6137 50.1654 -66.98C51.5782 -64.2585 53.661 -60.6906 55.3873 -57.8314C58.785 -52.2223 61.6828 -46.5184 64.0825 -40.7009C66.2437 -35.4903 68.3803 -29.9312 70.882 -24.7205C73.3752 -19.5856 78.1849 -14.289 78.0373 -8.4152C77.9858 -6.60423 77.6228 -3.77882 79.8608 -2.80167C83.178 -1.31224 86.3564 -5.97162 87.0042 -8.15695C87.698 -10.5011 87.0365 -12.5967 85.6648 -14.5739C79.8829 -23.0258 74.9373 -31.6102 71.2786 -41.0499C68.0675 -49.3494 64.0149 -56.8053 59.3253 -64.4391C53.1539 -74.4602 47.1073 -87.7217 55.1953 -98.6756C56.6715 -100.685 58.2129 -102.683 60.0574 -104.446C61.862 -106.186 63.955 -107.631 66.1197 -109.008C68.1625 -110.332 70.3022 -111.552 72.4714 -112.699C74.6616 -113.848 76.9045 -114.907 79.1749 -115.912C81.5482 -116.947 83.951 -117.909 86.3603 -118.814C86.688 -118.927 87.0135 -119.06 87.3412 -119.174C94.8168 -121.955 100.385 -118.99 106.462 -115.488C111.082 -112.82 114.993 -110.783 120.032 -108.93C129.181 -105.543 139.177 -105.401 148.903 -107.475C151.771 -108.086 154.634 -108.927 157.104 -110.241C160.856 -112.258 164.176 -115.474 166.838 -118.289C170.969 -122.614 174.869 -127.105 178.537 -131.762C181.108 -135.008 183.106 -138.056 184.553 -140.888C186.696 -145.105 186.993 -148.902 186.781 -153.43C186.521 -159.142 188.407 -164.885 189.915 -170.586C190.42 -172.525 190.876 -173.958 191.257 -174.923C192.303 -177.537 193.825 -179.898 195.772 -182.076C197.322 -183.806 198.99 -185.434 200.404 -187.244C203.378 -191.074 205.345 -195.713 205.825 -200.337C206.259 -204.419 205.456 -208.534 203.472 -212.171C200.899 -216.874 196.976 -222.424 201.77 -227.477C206.015 -231.93 213.176 -232.582 219.121 -233.27C220.761 -233.455 222.822 -233.86 224.045 -234.9C225.588 -236.322 224.792 -238.287 222.857 -238.837Z" fill="white" fill-opacity="0.1"/>
<path d="M406.769 18.9379C406.449 18.3595 406.072 17.845 405.655 17.3542C404.648 16.1617 403.347 15.1942 401.954 14.3524C400.128 13.2521 398.061 12.4669 395.92 11.9781C393.759 11.4917 391.547 11.3181 389.328 11.2606C386.982 11.2174 384.651 11.3069 382.325 11.4343C382.091 11.4414 381.881 11.465 381.648 11.4721C374.855 11.8141 368.102 11.7484 361.342 11.2418C353.959 10.6901 347.286 9.63599 342.22 4.32982C338.792 0.721239 336.79 -3.45113 334.526 -7.68993C333.336 -9.93735 331.962 -12.1256 330.51 -14.2474C329.056 -16.3882 327.525 -18.4627 325.895 -20.4685C324.315 -22.4031 322.695 -24.314 321.036 -26.2012C319.379 -28.0695 317.66 -29.9117 315.904 -31.7113C307.914 -39.9337 298.882 -48.3272 287.864 -53.3859C284.633 -54.8658 282.153 -56.1038 280.426 -57.0808C275.949 -59.6111 272.082 -62.9591 268.805 -67.1223C267.239 -69.1162 265.676 -71.0911 264.132 -73.0873C259.578 -78.9504 253.475 -80.9904 245.426 -80.2766C240.58 -79.8464 235.836 -78.8899 231.215 -77.4096C226.675 -75.9577 222.824 -73.8727 219.68 -71.176C217.72 -69.4958 215.084 -66.818 213.057 -65.1687C205.075 -58.5668 195.476 -54.7979 184.731 -54.0302C179.328 -53.6333 173.927 -53.2174 168.528 -52.7826C160.281 -52.1233 151.315 -50.8645 143.645 -47.5431C140.114 -46.0127 137.056 -43.6905 133.211 -42.8737C128.7 -41.9243 123.128 -43.0255 118.989 -44.6337C115.138 -46.1398 111.267 -48.3926 106.791 -47.8889C104.584 -47.6405 102.812 -46.3657 103.38 -44.1635C103.959 -41.8474 107.338 -40.0001 109.725 -39.4045C111.541 -38.9561 113.887 -38.9128 115.991 -38.7464C119.212 -38.4943 123.062 -37.5642 125.476 -37.1061C131.653 -35.9194 137.946 -36.9157 143.878 -39.0429C152.694 -42.2051 160.152 -45.1378 168.93 -46.3754C172.365 -46.8581 177.592 -47.3119 184.588 -47.7344C190.147 -48.072 194.951 -48.4975 199.807 -50.35C202.155 -51.2288 205.578 -53.1503 208.458 -54.0314C210.187 -54.5524 211.893 -55.0901 213.622 -55.6111C218.393 -57.0891 222.596 -59.6362 226.075 -62.9468C231.076 -67.6768 235.285 -71.6841 242.554 -72.5214C248.583 -73.2192 254.181 -71.3144 258.23 -67.2956C259.165 -66.3638 260.546 -64.8677 262.351 -62.824C266.156 -58.5089 271.047 -54.7578 276.403 -51.0397C281.043 -47.8172 285.723 -44.6184 290.438 -41.4812C296.168 -37.6516 299.781 -35.2353 301.259 -34.2109C303.222 -32.838 305.15 -31.4034 307 -29.9025C308.919 -28.3518 310.78 -26.7561 312.563 -25.094C314.369 -23.4153 316.121 -21.6537 317.791 -19.8636C319.461 -18.0736 321.032 -16.2148 322.526 -14.2897C323.994 -12.4001 325.361 -10.4608 326.609 -8.45043C327.96 -6.27883 329.233 -4.04087 330.446 -1.77686C335.249 7.24602 339.387 16.4015 351.677 18.206C356.243 18.8827 360.842 19.0948 365.474 18.8423C372.773 18.4625 379.947 17.1558 387.238 16.8921C389.844 16.7909 392.564 17.1376 394.983 18.0176C395.471 18.1932 395.963 18.4066 396.415 18.6438C397.074 19.0113 397.696 19.4405 398.261 19.9148C399.98 21.3919 401.072 23.343 401.295 25.5073C401.496 27.4818 400.978 29.4989 399.829 31.2029C399.372 31.8689 398.827 32.5064 398.186 33.0585C395.901 35.0633 392.328 36.2144 389.134 36.7659C384.038 37.6275 378.898 37.8988 373.733 37.5775C370.326 37.3657 366.897 37.1563 363.492 36.9634C360.644 36.8039 357.791 36.7984 354.956 36.9447C352.142 37.0886 349.345 37.3842 346.538 37.777C343.733 38.1887 340.942 38.7332 338.161 39.3536C335.358 39.9763 332.568 40.7128 329.792 41.39C329.322 41.5582 328.778 41.6387 328.301 41.75C327.824 41.8613 327.349 41.9915 326.872 42.1028C325.773 42.3609 324.677 42.638 323.578 42.8961C320.365 43.6609 316.083 44.1813 313.275 42.8651C310.243 41.4587 309.351 38.2561 309.844 35.2624C310.279 32.5058 311.28 30.4343 312.713 27.8533C315.384 23.7887 318.122 19.755 320.929 15.7711C321.405 15.0838 322.141 13.868 323.115 12.126C328.45 2.61499 319.454 -5.09099 311.877 -10.0185C308.661 -12.1147 305.467 -14.2133 302.252 -16.3095C299.31 -18.2445 297.172 -19.8474 295.816 -21.1159C293.389 -23.3968 291.545 -25.0328 290.259 -26.0595C286.191 -29.308 281.571 -31.5918 276.361 -32.8873C272.594 -33.8269 267.354 -34.0629 264.255 -34.7511C261.789 -35.2993 259.741 -35.7217 258.092 -35.9971C249.91 -37.4189 241.54 -36.3425 234.515 -31.8263C230.803 -29.4497 227.647 -26.4828 224.179 -23.8264C222.261 -22.343 220.835 -21.3953 219.93 -20.9285C216.039 -19.0118 212.545 -16.7751 209.491 -14.2229C204.316 -9.91483 199.492 -5.12786 195.036 0.0977364C192.085 3.56013 189.545 6.89938 187.339 10.7389C185.331 14.2679 184.661 17.9536 185.372 21.8104C186.564 28.4359 189.114 34.8319 189.347 41.6231C189.564 48.0895 187.967 54.5105 185.678 60.6445C185.663 60.7038 185.628 60.7654 185.615 60.8436C185.046 62.4055 184.412 63.9556 183.734 65.4914C180.204 73.4551 173.583 79.4813 164.577 82.4729C157.5 84.8249 149.17 86.8187 141.501 87.125C136.354 87.3394 130.794 87.101 124.824 86.4287C118.25 85.6898 113.377 84.9325 107.997 85.346C107.364 85.398 106.713 85.4713 106.084 85.5612C105.456 85.6511 104.83 85.76 104.229 85.9044C93.1334 88.2863 85.3846 98.4723 73.8974 99.2659C66.2959 99.795 59.5165 95.5266 53.4836 91.4623C48.8563 88.3536 44.1069 85.105 41.3583 80.5365C38.6054 75.9302 38.1692 70.3526 39.1543 65.1143C40.1395 59.876 42.4724 54.8893 44.9716 50.0567C47.4729 45.243 50.2318 39.8819 48.4577 34.8966C47.2412 31.4616 44.0189 28.9245 40.5982 27.0818C37.1775 25.2392 33.4276 23.8753 30.1725 21.8028C27.0773 19.8275 24.4645 17.2218 22.6181 14.2417C21.343 12.1768 19.5098 9.50257 16.9236 10.1585C15.1651 10.6061 14.315 12.5069 14.3725 14.152C14.5073 17.9968 17.9553 21.027 21.599 22.9598C25.6487 25.0965 30.1636 26.4511 34.1944 28.6091C38.2274 30.7862 41.8755 34.0819 42.5638 38.3061C43.0267 41.0961 42.1363 43.9617 41.0984 46.6518C39.0101 52.1103 36.2826 57.3719 34.5223 62.9087C32.7621 68.4454 32.0094 74.4257 33.9188 79.8567C36.6096 87.5043 44.1991 91.0286 50.6849 95.714C57.7032 100.781 63.2315 107.168 73.1993 106.488C78.6698 106.122 83.8851 104.057 88.7467 101.685C94.2552 99.0102 99.612 96.122 105.355 93.8242C105.415 93.7981 105.497 93.7697 105.558 93.7436C105.619 93.7176 105.699 93.6702 105.762 93.6631C111.565 91.3392 116.725 91.4305 122.814 92.2048C129.419 93.0361 135.877 93.8839 142.603 93.511C150.849 93.0437 159.017 91.6828 166.958 89.4448C183.439 84.8053 192.474 70.7298 195.608 56.2238C197.032 49.5918 198.185 43.0096 197.553 36.2633C197.123 31.6836 195.703 27.1961 194.873 22.6614C193.859 17.0528 195.112 12.1109 198.729 7.38284C202.015 3.11459 205.744 -0.819309 209.916 -4.39992C218.009 -11.3408 226.765 -17.4921 236.184 -22.854C245.846 -28.339 255.8 -30.65 266.671 -27.8408C273.861 -25.9806 280.373 -23.1417 286.114 -18.8333C288.437 -17.0976 291.05 -14.6839 293.458 -12.5736C296.456 -9.95361 299.198 -7.90018 301.668 -6.37304C309.621 -1.50704 317.947 2.51044 311.87 12.9884C308.825 18.2665 305.47 23.061 303.408 28.939C301.63 33.9401 301.468 38.932 302.832 43.8675C304.042 48.1866 307.086 53.49 312.271 54.7499C315.817 55.6184 320.894 54.0291 324.564 52.7903C327.269 51.8713 329.979 50.9901 332.683 50.0521C335.325 49.1402 337.936 48.1358 340.549 47.1504C343.164 46.1839 345.781 45.2364 348.46 44.4548C349.47 44.1683 350.481 43.8817 351.498 43.652C352.473 43.4271 353.464 43.1618 354.452 43.0507C356.646 42.6885 359.218 42.6679 362.126 42.9744C367.94 43.5874 373.615 44.4658 379.528 44.069C384.684 43.7385 389.994 42.8912 394.821 41.1573C401.916 38.5919 406.031 32.2332 407.561 25.7814C408.105 23.4349 407.923 21.0549 406.769 18.9379Z" fill="white" fill-opacity="0.1"/>
<path d="M313.961 98.1333C312.327 93.8235 308.42 91.6323 305.365 88.3083C299.233 81.6626 292.394 75.7302 285.678 69.5726C279.651 64.0481 274.434 58.5286 274.644 50.1896C274.826 43.6782 277.241 37.338 278.478 30.9383C279.201 27.1506 279.453 23.3391 278.984 19.5511C278.292 13.9639 275.159 9.95724 269.585 7.51199C263.408 4.80822 254.164 2.46872 247.326 4.48659C243.927 5.48368 242.062 7.63316 241.713 10.9564C241.278 15.038 242.421 19.3264 242.203 23.4413C241.934 28.4261 240.17 33.368 238.447 38.0941C237.974 39.3763 237.482 40.6799 236.986 41.9456C236.739 42.5879 236.448 43.216 236.201 43.8583C236.021 44.3394 235.901 45.1595 235.563 45.5624C233.694 50.3241 232.336 55.8349 231.34 61.1704C230.276 66.8401 229.232 72.5074 228.212 78.1913C226.697 86.6579 224.2 94.1596 216.252 99.5479C214.887 100.47 213.525 101.41 212.16 102.332C208.289 104.995 205.453 108.349 203.657 112.43C201.86 116.512 200.728 120.825 199.437 125.042C197.547 131.131 194.749 137.092 187.729 139.572C181.568 141.744 175.213 141.998 168.679 140.295C165.698 139.517 162.766 138.617 159.902 137.557C153.153 135.071 146.425 132.583 139.695 130.076C135.631 128.575 131.729 126.805 127.968 124.771C125.702 123.547 124.251 122.193 122.645 120.396C120.844 118.39 118.715 117.247 115.806 117.114C108.062 116.756 104.731 121.951 103.849 128.1C103.026 133.838 102.555 138.731 98.978 143.627C98.3888 144.442 97.3272 145.599 95.8186 147.132C94.6331 148.322 93.4708 149.528 92.3316 150.751C91.3456 151.822 90.2965 152.9 89.6766 154.199C89.1447 155.334 88.9789 156.697 89.5714 157.802C90.0881 158.8 91.6231 159.203 92.7493 159C94.1067 158.77 95.2861 157.716 96.1147 156.758C96.7755 156.012 97.3205 155.182 97.8214 154.338C99.3661 151.802 100.913 149.285 102.525 146.78C104.477 143.699 106.271 139.983 107.887 135.615C108.23 134.693 108.843 133.529 109.753 132.159C112.349 128.18 116.843 127.271 121.442 128.616C126.217 130.018 130.441 131.617 134.046 133.4C144.499 138.542 155.533 144.501 167.475 146.422C170.791 146.951 174.355 146.665 177.752 147.166C180.262 147.537 183.23 148.374 185.245 148.512C191.035 148.898 195.252 144.966 198.16 140.741C202.714 134.121 205.388 126.677 208.425 119.441C211.697 111.64 216.36 104.855 224.827 100.868C228.001 99.3777 232.097 98.3405 234.571 95.7385C237.995 92.1268 237.227 87.758 236.139 83.5788C234.286 76.3747 234.479 69.2091 236.697 62.0653C237.684 58.92 239.745 55.1161 240.741 52.4307C242.356 48.0625 243.181 43.476 244.973 39.1647C245.908 36.8894 247.134 34.735 247.916 32.4193C248.679 30.125 248.957 27.6741 248.795 25.2918C248.585 21.9163 248.037 18.5597 248.28 15.2294C248.416 13.601 249.07 11.6646 250.392 10.5555C253.369 8.06974 260.786 10.634 263.803 12.0996C268.935 14.5945 272.004 19.1654 272.759 24.3615C273.137 26.969 272.927 29.4507 272.475 32.0557C271.352 38.5194 269.128 44.8573 269.402 51.4517C269.538 54.9315 270.412 58.3474 272.08 61.4436C273.723 64.5041 276.294 67.4986 278.825 70.1327C284.441 75.9723 290.151 81.7054 295.259 87.9478C297.824 91.0774 300.37 94.2282 302.875 97.3839C305.727 100.98 307.401 105.075 308.274 109.431C308.779 112.025 309.294 115.846 309.818 120.876C310.021 122.87 310.527 128.689 313.065 129.306C315.035 129.795 315.814 126.692 315.778 125.429C315.715 122.978 315.132 120.451 314.733 118.038C314.043 113.794 314.342 109.075 314.601 104.571C314.811 102.474 314.715 100.103 313.961 98.1333Z" fill="white" fill-opacity="0.1"/>
<path d="M103.117 57.6849C101.215 57.803 99.2967 57.9613 97.4012 58.1362C93.1036 58.5239 88.7893 58.9519 84.5045 59.4534C82.9915 59.6236 81.4596 59.8153 79.9551 60.0614C79.35 60.1679 78.3666 60.317 77.9744 60.8028C77.5465 61.3503 78.4006 61.7535 78.922 61.8484C80.7448 62.1618 82.6236 62.0271 84.4835 61.9138C90.9879 61.4698 97.4902 61.0068 103.995 60.5628C106.718 60.3714 109.463 60.1778 112.03 59.3511C112.503 59.2019 113.042 58.8915 112.993 58.4554C112.929 58.0785 112.462 57.9006 112.048 57.8128C110.284 57.4544 108.456 57.4682 106.652 57.5175C105.465 57.5551 104.301 57.6094 103.117 57.6849Z" fill="white" fill-opacity="0.1"/>
<path d="M154.599 47.32C154.279 46.7415 153.902 46.2271 153.485 45.7363C152.457 44.5461 151.177 43.5763 149.784 42.7345C147.958 41.6341 145.891 40.849 143.75 40.3602C141.589 39.8737 139.377 39.7002 137.158 39.6427C134.812 39.5995 132.481 39.689 130.155 39.8164C129.921 39.8234 129.711 39.8471 129.478 39.8541C122.685 40.1962 115.932 40.1305 109.172 39.6239C101.789 39.0722 95.1161 38.0181 90.05 32.7119C86.622 29.1033 84.6202 24.931 82.3556 20.6921C81.1663 18.4447 79.7922 16.2565 78.3404 14.1347C76.8864 11.9939 75.3548 9.91937 73.7246 7.91362C72.1449 5.979 70.5253 4.06808 68.8658 2.18084C67.2085 0.312569 65.4902 -1.52964 63.7342 -3.3292C55.7436 -11.5517 46.7124 -19.9451 35.6943 -25.0038C32.4634 -26.4838 29.9832 -27.7217 28.2559 -28.6987C23.7789 -31.229 19.9121 -34.577 16.6345 -38.7402C15.0694 -40.7341 13.5065 -42.709 11.9624 -44.7052C7.40817 -50.5683 1.30516 -52.6084 -6.74362 -51.8945C-11.5897 -51.4643 -16.334 -50.5078 -20.9555 -49.0275C-25.495 -47.5756 -29.3462 -45.4906 -32.4901 -42.7939C-34.4504 -41.1138 -37.0857 -38.4359 -39.1132 -36.7866C-47.0951 -30.1847 -56.694 -26.4158 -67.4393 -25.6481C-72.8425 -25.2512 -78.2435 -24.8353 -83.6423 -24.4005C-91.8888 -23.7412 -100.855 -22.4824 -108.525 -19.161C-112.056 -17.6306 -115.114 -15.3084 -118.959 -14.4916C-123.47 -13.5422 -129.042 -14.6434 -133.181 -16.2516C-137.032 -17.7577 -140.903 -20.0106 -145.379 -19.5068C-147.586 -19.2584 -149.358 -17.9836 -148.791 -15.7814C-148.211 -13.4654 -144.832 -11.618 -142.445 -11.0224C-140.629 -10.574 -138.283 -10.5307 -136.179 -10.3643C-132.958 -10.1122 -129.108 -9.18209 -126.695 -8.72401C-120.517 -7.53729 -114.224 -8.53366 -108.292 -10.6608C-99.4762 -13.8231 -92.0176 -16.7558 -83.2404 -17.9933C-79.8047 -18.476 -74.5783 -18.9298 -67.582 -19.3524C-62.0232 -19.69 -57.2192 -20.1154 -52.3629 -21.9679C-50.0146 -22.8467 -46.5919 -24.7682 -43.7118 -25.6493C-41.9829 -26.1704 -40.2771 -26.708 -38.5482 -27.2291C-33.7775 -28.707 -29.574 -31.2541 -26.0948 -34.5647C-21.0943 -39.2947 -16.8849 -43.302 -9.61612 -44.1393C-3.58716 -44.8371 2.01115 -42.9323 6.05987 -38.9135C6.99467 -37.9817 8.37605 -36.4856 10.1808 -34.4419C13.9862 -30.1269 18.8773 -26.3757 24.2329 -22.6576C28.8729 -19.4351 33.5529 -16.2363 38.2685 -13.0991C43.9983 -9.26954 47.6113 -6.85323 49.0886 -5.82886C51.0519 -4.45592 52.9797 -3.02135 54.8297 -1.52044C56.7493 0.0302651 58.61 1.62601 60.3931 3.28809C62.1994 4.96677 63.9511 6.72838 65.6209 8.51844C67.2908 10.3085 68.8619 12.1673 70.3555 14.0924C71.8237 15.9819 73.1911 17.9212 74.4388 19.9316C75.7898 22.1032 77.0631 24.3412 78.2756 26.6052C83.079 35.6281 87.2164 44.7835 99.5068 46.5881C104.073 47.2648 108.672 47.4769 113.304 47.2244C120.603 46.8446 127.777 45.5379 135.068 45.2742C137.674 45.1729 140.394 45.5197 142.813 46.3997C143.301 46.5752 143.793 46.7887 144.245 47.0258C144.904 47.3934 145.526 47.8226 146.09 48.2968C147.81 49.774 148.902 51.7251 149.125 53.8893C149.326 55.8639 148.808 57.881 147.659 59.585C147.202 60.251 146.656 60.8885 146.016 61.4406C143.731 63.4454 140.158 64.5965 136.964 65.148C131.868 66.0096 126.728 66.2809 121.563 65.9596C118.156 65.7478 114.727 65.5384 111.322 65.3455C108.474 65.186 105.621 65.1805 102.786 65.3268C99.9722 65.4707 97.1752 65.7663 94.3678 66.1591C91.5626 66.5708 88.7723 67.1153 85.9905 67.7357C83.1877 68.3584 80.3978 69.0949 77.6224 69.7721C77.1519 69.9403 76.6077 70.0208 76.1308 70.132C75.6538 70.2433 75.179 70.3736 74.7021 70.4849C73.6033 70.743 72.5066 71.0201 71.4078 71.2782C68.1954 72.043 63.9128 72.5634 61.1046 71.2472C58.0734 69.8408 57.181 66.6381 57.674 63.6445C58.1085 60.8878 59.1096 58.8164 60.5429 56.2354C63.2136 52.1708 65.9517 48.1371 68.7592 44.1532C69.2351 43.4659 69.9708 42.2501 70.9451 40.5081C76.2801 30.9971 67.2836 23.2911 59.7065 18.3636C56.4913 16.2673 53.2971 14.1688 50.0819 12.0725C47.1402 10.1376 45.002 8.53465 43.6463 7.26616C41.219 4.98525 39.3749 3.34923 38.089 2.32253C34.0205 -0.925899 29.401 -3.20972 24.1904 -4.50524C20.4245 -5.44484 15.1842 -5.68082 12.0849 -6.369C9.61854 -6.91717 7.57063 -7.3396 5.92232 -7.61498C-2.26044 -9.03686 -10.6302 -7.96041 -17.6551 -3.4442C-21.3671 -1.06763 -24.5232 1.89931 -27.9908 4.55565C-29.9093 6.03903 -31.3349 6.98683 -32.24 7.45357C-36.1313 9.37024 -39.625 11.607 -42.6787 14.1592C-47.8545 18.4673 -52.6784 23.2542 -57.1337 28.4798C-60.085 31.9422 -62.6246 35.2815 -64.8312 39.1209C-66.8387 42.6499 -67.5092 46.3357 -66.7985 50.1925C-65.6059 56.818 -63.0559 63.214 -62.8235 70.0052C-62.6065 76.4716 -64.2033 82.8926 -66.4922 89.0266C-66.5068 89.0858 -66.5424 89.1475 -66.5549 89.2257C-67.1239 90.7876 -67.7581 92.3377 -68.4365 93.8735C-71.9665 101.837 -78.5874 107.863 -87.5928 110.855C-94.6699 113.207 -103 115.201 -110.669 115.507C-115.816 115.721 -121.376 115.483 -127.346 114.811C-133.92 114.072 -138.793 113.315 -144.173 113.728C-144.806 113.78 -145.457 113.853 -146.086 113.943C-146.714 114.033 -147.34 114.142 -147.941 114.287C-159.037 116.668 -166.785 126.854 -178.273 127.648C-185.874 128.177 -192.654 123.909 -198.686 119.844C-203.314 116.736 -208.063 113.487 -210.812 108.919C-213.565 104.312 -214.001 98.7347 -213.016 93.4964C-212.031 88.2581 -209.698 83.2713 -207.198 78.4388C-204.697 73.6251 -201.938 68.264 -203.712 63.2786C-204.929 59.8437 -208.151 57.3065 -211.572 55.4639C-214.993 53.6213 -218.742 52.2574 -221.998 50.1848C-225.093 48.2096 -227.706 45.6038 -229.552 42.6238C-230.827 40.5589 -232.66 37.8846 -235.246 38.5406C-237.005 38.9882 -237.855 40.889 -237.798 42.5341C-237.663 46.3789 -234.215 49.4091 -230.571 51.3418C-226.521 53.4786 -222.006 54.8332 -217.976 56.9912C-213.943 59.1682 -210.295 62.464 -209.606 66.6882C-209.143 69.4782 -210.034 72.3438 -211.072 75.0339C-213.16 80.4924 -215.887 85.754 -217.648 91.2907C-219.408 96.8275 -220.161 102.808 -218.251 108.239C-215.56 115.886 -207.971 119.411 -201.485 124.096C-194.467 129.163 -188.939 135.551 -178.971 134.87C-173.5 134.504 -168.285 132.439 -163.423 130.067C-157.915 127.392 -152.558 124.504 -146.816 122.206C-146.755 122.18 -146.673 122.152 -146.612 122.126C-146.551 122.1 -146.471 122.052 -146.408 122.045C-140.605 119.721 -135.445 119.813 -129.356 120.587C-122.751 121.418 -116.293 122.266 -109.567 121.893C-101.321 121.426 -93.1532 120.065 -85.2121 117.827C-68.7312 113.187 -59.6965 99.1119 -56.5623 84.6059C-55.1382 77.9739 -53.9851 71.3917 -54.6167 64.6454C-55.047 60.0657 -56.4671 55.5782 -57.2967 51.0435C-58.311 45.4349 -57.0584 40.4929 -53.4409 35.7649C-50.1546 31.4967 -46.4264 27.5628 -42.2541 23.9822C-34.1614 17.0413 -25.4052 10.89 -15.9856 5.52811C-6.32452 0.0430682 3.62999 -2.26795 14.5013 0.541274C21.6906 2.40144 28.2028 5.24041 33.9439 9.54882C36.2674 11.2845 38.8799 13.6982 41.288 15.8085C44.2855 18.4285 47.0277 20.4819 49.4978 22.009C57.4511 26.875 65.7771 30.8925 59.6997 41.3705C56.6548 46.6486 53.3001 51.443 51.2378 57.3211C49.4598 62.3221 49.2981 67.3141 50.6623 72.2496C51.8719 76.5687 54.9161 81.8721 60.1014 83.132C63.6466 84.0004 68.724 82.4112 72.3937 81.1724C75.0993 80.2533 77.8091 79.3722 80.5126 78.4342C83.1551 77.5223 85.766 76.5179 88.379 75.5325C90.9941 74.566 93.6113 73.6185 96.2898 72.8369C97.3003 72.5504 98.3108 72.2638 99.3277 72.0341C100.303 71.8092 101.294 71.5439 102.282 71.4328C104.476 71.0706 107.048 71.05 109.955 71.3565C115.77 71.9695 121.445 72.8479 127.358 72.4511C132.514 72.1206 137.823 71.2733 142.651 69.5394C149.746 66.974 153.861 60.6153 155.391 54.1635C155.935 51.8169 155.752 49.437 154.599 47.32Z" fill="white" fill-opacity="0.1"/>
<path d="M156.125 158.838C148.82 155.185 140.973 152.209 132.589 151.462C125.99 150.88 121.003 153.458 116.058 157.164C113.291 159.242 110.543 161.299 107.776 163.377C107.071 163.917 104.164 166.261 103.164 165.125C102.578 164.461 103.511 162.916 104.046 162.183C107.397 157.543 110.901 153.327 114.563 149.554C115.668 148.412 117.028 147.26 118.645 146.118C124.756 141.801 131.008 142.518 137.56 145.142C144.957 148.092 152.396 151.038 159.81 153.948C167.823 157.079 175.718 159.916 184.542 160.037C195.73 160.18 206.773 154.865 214.786 147.972C218.958 144.391 222.17 140.976 226.345 136.666C229.243 133.67 232.128 132.078 236.342 130.951C243.884 128.95 251.896 126.204 258.682 122.022C262.323 119.769 265.324 116.935 267.68 113.482C270.255 109.697 272.104 106.09 273.252 102.677C275.258 96.6706 273.437 91.46 269.95 86.3794C266.385 81.1732 262.938 76.8369 260.756 71.6286C260.408 70.8036 259.345 67.217 261.39 67.2364C262.39 67.2391 263.306 68.3842 263.791 69.0978C265.618 71.7151 267.405 74.3562 269.372 76.9001C271.664 79.8684 273.935 82.839 276.208 85.8287C278.805 89.2427 281.235 92.8676 282.219 96.8856C282.922 99.7255 282.1 100.932 280.303 103.496C278.836 105.582 277.679 107.786 276.794 110.132C276.141 111.896 275.419 114.742 274.687 116.553C272.125 122.91 267.089 127.702 260.566 131.009C256.862 132.885 252.78 134.055 248.402 135.432C241.827 137.516 234.323 140.799 229.16 145.221C223.451 150.089 218.053 154.882 211.149 158.387C205.191 161.419 198.641 163.539 191.48 164.767C182.146 166.356 173.929 166.897 165.541 163.27C162.63 161.985 159.485 160.514 156.125 158.838Z" fill="white" fill-opacity="0.1"/>
<path d="M156.224 106.573C154.108 105.736 156.651 103.183 157.743 102.676C163.407 100.061 168.414 97.4619 172.821 94.8342C174.975 93.5547 183.477 90.0629 183.918 94.5454C184.111 96.6361 181.64 98.5081 179.756 99.3539C177.223 100.484 174.519 101.038 171.792 101.575C168.027 102.345 164.544 103.543 161.161 105.249C159.933 105.868 157.583 107.111 156.224 106.573Z" fill="white" fill-opacity="0.1"/>
<path d="M186.555 130.64C185.431 132.936 174.233 133.275 174.297 131.386C174.288 131.31 174.345 131.246 174.404 131.201C174.796 130.907 175.195 130.67 175.624 130.507C178.295 129.476 181.875 128.382 184.768 128.748C185.825 128.878 187.108 129.502 186.555 130.64Z" fill="white" fill-opacity="0.1"/>
<path d="M56.9078 168.372C50.9097 164.995 41.4333 160.589 39.0237 153.928C37.7819 150.457 38.5259 145.534 42.1032 143.096C42.9934 142.496 43.9262 142.276 44.906 142.473C49.1069 143.306 48.0874 149.374 48.6469 152.076C50.2917 160.072 58.2348 163.902 64.8397 168.133C71.7665 172.576 75.6842 178.645 77.6054 186.072C78.5555 189.787 79.5078 193.521 80.4368 197.238C80.6316 198.022 80.6311 198.963 80.4354 200.061C80.1813 201.395 78.7871 202.243 77.7822 200.878C77.1291 199.991 76.6398 199.048 76.3123 198.028C75.6405 196.03 74.9477 194.034 74.2548 192.038C72.6114 187.268 70.3778 182.738 67.617 178.44C64.7153 174.023 61.633 171.028 56.9078 168.372Z" fill="white" fill-opacity="0.1"/>
<path d="M-106.598 43.1497C-111.387 41.0578 -116.476 39.9022 -121.957 41.1145C-123.638 41.4957 -125.298 41.8745 -126.958 42.2534C-131.334 43.2645 -134.306 39.931 -129.675 37.3934C-125.045 34.8559 -119.437 33.8214 -114.31 35.3184C-107.228 37.3634 -100.246 41.9163 -92.6379 41.8281C-86.8768 41.775 -82.2821 38.1661 -78.6194 34.0283C-77.1468 32.3646 -74.7387 29.5587 -71.4119 25.6508C-66.5078 19.8754 -60.0198 14.7475 -53.9984 9.63367C-48.4408 4.93695 -44.3086 0.0549754 -41.5684 -6.41786C-40.8441 -8.11251 -40.1198 -9.80715 -39.3933 -11.4828C-36.4372 -18.3064 -30.7987 -23.6076 -23.5656 -26.8414C-22.8557 -27.1517 -21.2721 -27.8292 -18.8357 -28.8716C-15.5257 -30.2812 -13.0944 -33.0705 -9.75876 -34.2525C-6.50502 -35.4061 -3.71063 -34.7796 -1.69258 -32.1646C1.54298 -27.9966 5.83699 -25.5801 10.4447 -22.8341C12.1784 -21.8002 15.2251 -19.877 14.796 -17.6395C14.4438 -15.8523 12.4536 -15.7627 10.7818 -16.2467C7.96604 -17.0628 5.61094 -18.891 2.51577 -20.8663C-0.855064 -23.0218 -4.65553 -24.4568 -8.86578 -24.6167C-18.0787 -24.9816 -25.5716 -21.2193 -30.6123 -14.1995C-33.204 -10.5663 -34.7175 -6.9969 -36.3966 -3.19759C-38.9928 2.66373 -42.7151 7.59555 -47.5656 11.579C-50.8188 14.2496 -54.07 16.9392 -57.3189 19.6477C-62.4569 23.9131 -66.9214 28.6789 -70.7125 33.9449C-73.235 37.4359 -76.0643 42.1712 -77.9029 44.9322C-82.6367 52.0327 -88.7083 52.3512 -96.0274 48.3932C-99.7932 46.3206 -103.308 44.5846 -106.598 43.1497Z" fill="white" fill-opacity="0.1"/>
<path d="M61.7894 126.515C60.1552 122.206 56.2483 120.014 53.1929 116.69C47.061 110.045 40.2219 104.112 33.5065 97.9547C27.4795 92.4302 22.2617 86.9107 22.4723 78.5717C22.6545 72.0603 25.0691 65.7201 26.3066 59.3204C27.0295 55.5327 27.2815 51.7212 26.8125 47.9332C26.1199 42.346 22.9876 38.3393 17.4135 35.8941C11.2358 33.1903 1.99215 30.8508 -4.84585 32.8687C-8.2449 33.8658 -10.1097 36.0152 -10.4592 39.3384C-10.8936 43.4201 -9.75127 47.7084 -9.9691 51.8234C-10.238 56.8082 -12.0014 61.75 -13.7252 66.4762C-14.198 67.7584 -14.6897 69.062 -15.1856 70.3277C-15.4325 70.97 -15.7236 71.598 -15.9705 72.2404C-16.1505 72.7215 -16.271 73.5416 -16.6087 73.9445C-18.4774 78.7061 -19.8363 84.217 -20.8318 89.5524C-21.8961 95.2221 -22.9394 100.889 -23.9595 106.573C-25.4751 115.04 -27.9718 122.542 -35.9201 127.93C-37.2847 128.852 -38.6472 129.792 -40.0118 130.714C-43.883 133.377 -46.7189 136.731 -48.5153 140.812C-50.3117 144.894 -51.4434 149.207 -52.7351 153.424C-54.6247 159.513 -57.4226 165.474 -64.4426 167.954C-70.6036 170.126 -76.9591 170.38 -83.4924 168.677C-86.4741 167.899 -89.4056 167 -92.2701 165.939C-99.0191 163.453 -105.747 160.965 -112.477 158.458C-116.541 156.957 -120.443 155.187 -124.204 153.153C-126.47 151.929 -127.92 150.575 -129.527 148.778C-131.328 146.772 -133.457 145.629 -136.366 145.496C-144.11 145.138 -147.44 150.333 -148.323 156.482C-149.146 162.22 -149.617 167.113 -153.194 172.009C-153.783 172.824 -154.845 173.981 -156.353 175.514C-157.539 176.704 -158.701 177.91 -159.84 179.133C-160.826 180.204 -161.875 181.282 -162.495 182.581C-163.027 183.716 -163.193 185.079 -162.6 186.184C-162.084 187.182 -160.549 187.585 -159.422 187.382C-158.065 187.152 -156.886 186.098 -156.057 185.14C-155.396 184.394 -154.851 183.564 -154.35 182.72C-152.806 180.185 -151.259 177.668 -149.647 175.162C-147.695 172.081 -145.9 168.365 -144.285 163.997C-143.942 163.075 -143.328 161.911 -142.419 160.541C-139.823 156.562 -135.329 155.653 -130.73 156.998C-125.954 158.4 -121.731 159.999 -118.126 161.782C-107.673 166.924 -96.6384 172.883 -84.6967 174.804C-81.3812 175.333 -77.817 175.048 -74.4196 175.549C-71.9094 175.919 -68.9423 176.756 -66.9264 176.894C-61.1373 177.28 -56.9193 173.348 -54.0113 169.123C-49.4575 162.503 -46.7842 155.059 -43.7468 147.823C-40.475 140.023 -35.8122 133.237 -27.3445 129.25C-24.1712 127.76 -20.0744 126.723 -17.6008 124.121C-14.1768 120.509 -14.9452 116.14 -16.0327 111.961C-17.8863 104.757 -17.6926 97.5912 -15.4748 90.4474C-14.4881 87.3021 -12.4265 83.4982 -11.4306 80.8128C-9.81547 76.4446 -8.99101 71.8581 -7.19925 67.5468C-6.26363 65.2715 -5.03776 63.1171 -4.25564 60.8014C-3.49242 58.5071 -3.21496 56.0562 -3.37669 53.6739C-3.58637 50.2984 -4.1344 46.9418 -3.89209 43.6115C-3.75617 41.9831 -3.10164 40.0466 -1.77939 38.9376C1.19675 36.4518 8.61431 39.0161 11.6309 40.4817C16.7636 42.9766 19.8317 47.5475 20.5868 52.7435C20.9654 55.3511 20.7552 57.8328 20.3036 60.4377C19.1797 66.9015 16.9564 73.2393 17.2304 79.8338C17.3667 83.3136 18.2406 86.7295 19.9084 89.8256C21.551 92.8862 24.1225 95.8807 26.6534 98.5148C32.269 104.354 37.979 110.087 43.0867 116.33C45.6521 119.459 48.1986 122.61 50.7031 125.766C53.5551 129.363 55.2289 133.457 56.1023 137.814C56.607 140.407 57.1222 144.228 57.6458 149.258C57.8489 151.252 58.3549 157.071 60.8929 157.688C62.8631 158.177 63.6418 155.074 63.606 153.811C63.5429 151.36 62.9606 148.833 62.5613 146.42C61.8709 142.176 62.1697 137.457 62.4289 132.953C62.6397 130.856 62.5432 128.485 61.7894 126.515Z" fill="white" fill-opacity="0.1"/>
</g>
<defs>
<clipPath id="clip0_32_1164">
<rect y="-71.5886" width="253.763" height="229" rx="63.907" transform="rotate(-6.42167 0 -71.5886)" fill="white"/>
</clipPath>
</defs>
</svg>
